<?xml version="1.0" encoding="UTF-8"?>
<svg id="Camada_1" data-name="Camada 1" xmlns="http://www.w3.org/2000/svg" viewBox="0 0 610.95 156.26">
  <g>
    <rect x="322.13" y="82.27" width="108.13" height="2.9" rx="1.45" ry="1.45" transform="translate(292.48 459.91) rotate(-90)"/>
    <g>
      <path d="M404.49,43.47h-8.93l-1.85,4.2h-2.47l7.61-16.8h2.38l7.63,16.8h-2.52l-1.85-4.2ZM403.65,41.55l-3.62-8.23-3.62,8.23h7.25Z"/>
      <path d="M422.75,39.18h2.3v6.55c-.83.69-1.8,1.22-2.9,1.58-1.1.37-2.26.55-3.46.55-1.7,0-3.22-.37-4.58-1.12-1.36-.74-2.43-1.77-3.2-3.07s-1.16-2.77-1.16-4.4.39-3.1,1.16-4.41,1.85-2.34,3.22-3.07c1.37-.74,2.91-1.1,4.62-1.1,1.34,0,2.56.22,3.66.66,1.1.44,2.03,1.08,2.79,1.93l-1.49,1.49c-1.34-1.3-2.97-1.94-4.87-1.94-1.28,0-2.43.28-3.44.83s-1.81,1.32-2.39,2.3c-.58.98-.86,2.09-.86,3.32s.29,2.32.86,3.3c.58.98,1.37,1.76,2.39,2.32,1.02.56,2.15.84,3.42.84,1.5,0,2.82-.36,3.93-1.08v-5.47Z"/>
      <path d="M441.83,45.58v2.09h-12.19v-16.8h11.85v2.09h-9.45v5.16h8.42v2.04h-8.42v5.42h9.79ZM437.79,29.51l-2.21-1.85-2.21,1.85h-2.09l3.19-3.12h2.21l3.19,3.12h-2.09Z"/>
      <path d="M460.16,30.87v16.8h-1.97l-10.08-12.52v12.52h-2.4v-16.8h1.97l10.08,12.53v-12.53h2.4Z"/>
      <path d="M468.16,46.75c-1.35-.74-2.41-1.77-3.18-3.07s-1.15-2.77-1.15-4.4.38-3.1,1.15-4.4c.77-1.3,1.83-2.33,3.19-3.07,1.36-.74,2.88-1.12,4.56-1.12,1.31,0,2.51.22,3.6.66,1.09.44,2.02,1.09,2.78,1.96l-1.56,1.51c-1.26-1.33-2.84-1.99-4.73-1.99-1.25,0-2.38.28-3.38.84-1.01.56-1.8,1.33-2.36,2.32-.57.98-.85,2.08-.85,3.3s.28,2.32.85,3.3c.57.98,1.36,1.76,2.36,2.32,1.01.56,2.13.84,3.38.84,1.87,0,3.45-.67,4.73-2.02l1.56,1.51c-.77.86-1.7,1.52-2.8,1.97s-2.3.67-3.61.67c-1.68,0-3.2-.37-4.55-1.12Z"/>
      <path d="M482.54,30.87h2.4v16.8h-2.4v-16.8Z"/>
      <path d="M500.68,43.47h-8.93l-1.85,4.2h-2.47l7.61-16.8h2.38l7.63,16.8h-2.52l-1.85-4.2ZM499.84,41.55l-3.62-8.23-3.62,8.23h7.25Z"/>
      <path d="M525.68,32.43c1.25,1.04,1.87,2.47,1.87,4.29s-.62,3.26-1.87,4.3c-1.25,1.04-2.96,1.56-5.13,1.56h-4.15v5.09h-2.4v-16.8h6.55c2.17,0,3.89.52,5.13,1.56ZM523.96,39.52c.8-.65,1.2-1.58,1.2-2.8s-.4-2.15-1.2-2.79c-.8-.65-1.96-.97-3.48-.97h-4.08v7.53h4.08c1.52,0,2.68-.32,3.48-.97Z"/>
      <path d="M540.94,43.47h-8.93l-1.85,4.2h-2.47l7.61-16.8h2.38l7.63,16.8h-2.52l-1.85-4.2ZM540.1,41.55l-3.62-8.23-3.62,8.23h7.25Z"/>
      <path d="M559.04,47.67l-3.62-5.16c-.45.03-.8.05-1.06.05h-4.15v5.11h-2.4v-16.8h6.55c2.18,0,3.89.52,5.13,1.56,1.25,1.04,1.87,2.47,1.87,4.29,0,1.3-.32,2.4-.96,3.31-.64.91-1.55,1.58-2.74,1.99l3.98,5.64h-2.62ZM557.76,39.54c.8-.66,1.2-1.59,1.2-2.81s-.4-2.15-1.2-2.79c-.8-.65-1.96-.97-3.48-.97h-4.08v7.56h4.08c1.52,0,2.68-.33,3.48-.98Z"/>
      <path d="M575.95,43.47h-8.93l-1.85,4.2h-2.47l7.61-16.8h2.38l7.63,16.8h-2.52l-1.85-4.2ZM575.11,41.55l-3.62-8.23-3.62,8.23h7.25Z"/>
      <path d="M404.49,72.26h-8.93l-1.85,4.2h-2.47l7.61-16.8h2.38l7.63,16.8h-2.52l-1.85-4.2ZM403.65,70.34l-3.62-8.23-3.62,8.23h7.25Z"/>
      <path d="M429.04,76.46l-3.62-5.16c-.45.03-.8.05-1.06.05h-4.15v5.11h-2.4v-16.8h6.55c2.18,0,3.89.52,5.13,1.56,1.25,1.04,1.87,2.47,1.87,4.29,0,1.3-.32,2.4-.96,3.31-.64.91-1.55,1.58-2.74,1.99l3.98,5.64h-2.62ZM427.76,68.33c.8-.66,1.2-1.59,1.2-2.81s-.4-2.15-1.2-2.8c-.8-.65-1.96-.97-3.48-.97h-4.08v7.56h4.08c1.52,0,2.68-.33,3.48-.98Z"/>
      <path d="M447.44,74.38v2.09h-12.19v-16.8h11.85v2.09h-9.45v5.16h8.42v2.04h-8.42v5.42h9.79Z"/>
      <path d="M453.73,61.75v5.85h8.42v2.06h-8.42v6.79h-2.4v-16.8h11.85v2.09h-9.45Z"/>
      <path d="M469.37,75.54c-1.36-.74-2.43-1.77-3.2-3.08-.78-1.31-1.16-2.77-1.16-4.39s.39-3.08,1.16-4.39c.78-1.31,1.84-2.34,3.2-3.08,1.36-.74,2.89-1.12,4.58-1.12s3.2.37,4.56,1.12c1.36.74,2.42,1.77,3.19,3.07.77,1.3,1.15,2.77,1.15,4.4s-.38,3.1-1.15,4.4c-.77,1.3-1.83,2.33-3.19,3.07-1.36.74-2.88,1.12-4.56,1.12s-3.22-.37-4.58-1.12ZM477.28,73.68c.98-.56,1.76-1.33,2.33-2.32.57-.98.85-2.08.85-3.3s-.28-2.32-.85-3.3c-.57-.98-1.34-1.76-2.33-2.32-.98-.56-2.09-.84-3.32-.84s-2.35.28-3.35.84c-1,.56-1.78,1.33-2.35,2.32s-.85,2.08-.85,3.3.28,2.32.85,3.3c.57.98,1.35,1.76,2.35,2.32,1,.56,2.12.84,3.35.84s2.34-.28,3.32-.84Z"/>
      <path d="M497.75,76.46l-3.62-5.16c-.45.03-.8.05-1.06.05h-4.15v5.11h-2.4v-16.8h6.55c2.17,0,3.89.52,5.13,1.56,1.25,1.04,1.87,2.47,1.87,4.29,0,1.3-.32,2.4-.96,3.31-.64.91-1.55,1.58-2.73,1.99l3.98,5.64h-2.62ZM496.48,68.33c.8-.66,1.2-1.59,1.2-2.81s-.4-2.15-1.2-2.8c-.8-.65-1.96-.97-3.48-.97h-4.08v7.56h4.08c1.52,0,2.68-.33,3.48-.98Z"/>
      <path d="M519.54,76.46l-.02-12.24-6.07,10.2h-1.1l-6.07-10.13v12.17h-2.3v-16.8h1.97l7.01,11.81,6.91-11.81h1.97l.02,16.8h-2.3Z"/>
      <path d="M537.58,72.26h-8.93l-1.85,4.2h-2.47l7.61-16.8h2.38l7.63,16.8h-2.52l-1.85-4.2ZM536.75,70.34l-3.62-8.23-3.62,8.23h7.25Z"/>
      <path d="M397.12,90.55h-5.76v-2.09h13.89v2.09h-5.76v14.71h-2.38v-14.71Z"/>
      <path d="M420.06,103.17v2.09h-12.19v-16.8h11.85v2.09h-9.45v5.16h8.42v2.04h-8.42v5.42h9.79Z"/>
      <path d="M426.84,104.33c-1.35-.74-2.41-1.77-3.18-3.07s-1.15-2.77-1.15-4.4.38-3.1,1.15-4.4c.77-1.3,1.83-2.33,3.19-3.07s2.88-1.12,4.56-1.12c1.31,0,2.51.22,3.6.66,1.09.44,2.02,1.09,2.78,1.96l-1.56,1.51c-1.26-1.33-2.84-1.99-4.73-1.99-1.25,0-2.38.28-3.38.84-1.01.56-1.79,1.33-2.36,2.32-.57.98-.85,2.08-.85,3.3s.28,2.32.85,3.3,1.36,1.76,2.36,2.32c1.01.56,2.14.84,3.38.84,1.87,0,3.45-.67,4.73-2.02l1.56,1.51c-.77.86-1.7,1.52-2.79,1.97s-2.3.67-3.61.67c-1.68,0-3.2-.37-4.55-1.12Z"/>
      <path d="M455.67,88.46v16.8h-1.97l-10.08-12.52v12.52h-2.4v-16.8h1.97l10.08,12.52v-12.52h2.4Z"/>
      <path d="M463.71,104.33c-1.36-.74-2.43-1.77-3.2-3.08-.78-1.31-1.16-2.77-1.16-4.39s.39-3.08,1.16-4.39c.78-1.31,1.84-2.34,3.2-3.08,1.36-.74,2.89-1.12,4.58-1.12s3.2.37,4.56,1.12c1.36.74,2.42,1.77,3.19,3.07.77,1.3,1.15,2.77,1.15,4.4s-.38,3.1-1.15,4.4c-.77,1.3-1.83,2.33-3.19,3.07-1.36.74-2.88,1.12-4.56,1.12s-3.22-.37-4.58-1.12ZM471.61,102.47c.98-.56,1.76-1.33,2.33-2.32.57-.98.85-2.08.85-3.3s-.28-2.32-.85-3.3c-.57-.98-1.34-1.76-2.33-2.32-.98-.56-2.09-.84-3.32-.84s-2.35.28-3.35.84c-1,.56-1.78,1.33-2.35,2.32-.57.98-.85,2.08-.85,3.3s.28,2.32.85,3.3,1.35,1.76,2.35,2.32c1,.56,2.12.84,3.35.84s2.34-.28,3.32-.84Z"/>
      <path d="M480.86,88.46h2.4v14.71h9.09v2.09h-11.49v-16.8Z"/>
      <path d="M497.8,104.33c-1.36-.74-2.43-1.77-3.2-3.08-.78-1.31-1.16-2.77-1.16-4.39s.39-3.08,1.16-4.39c.78-1.31,1.84-2.34,3.2-3.08,1.36-.74,2.89-1.12,4.58-1.12s3.2.37,4.56,1.12c1.36.74,2.42,1.77,3.19,3.07.77,1.3,1.15,2.77,1.15,4.4s-.38,3.1-1.15,4.4c-.77,1.3-1.83,2.33-3.19,3.07-1.36.74-2.88,1.12-4.56,1.12s-3.22-.37-4.58-1.12ZM505.71,102.47c.98-.56,1.76-1.33,2.33-2.32.57-.98.85-2.08.85-3.3s-.28-2.32-.85-3.3c-.57-.98-1.34-1.76-2.33-2.32-.98-.56-2.09-.84-3.32-.84s-2.35.28-3.35.84c-1,.56-1.78,1.33-2.35,2.32-.57.98-.85,2.08-.85,3.3s.28,2.32.85,3.3,1.35,1.76,2.35,2.32c1,.56,2.12.84,3.35.84s2.34-.28,3.32-.84ZM503.85,83.97h2.93l-4.03,3.12h-2.16l3.26-3.12Z"/>
      <path d="M526.6,96.76h2.3v6.55c-.83.69-1.8,1.22-2.9,1.58-1.1.37-2.26.55-3.46.55-1.7,0-3.22-.37-4.58-1.12-1.36-.74-2.43-1.77-3.2-3.07-.78-1.3-1.16-2.77-1.16-4.4s.39-3.1,1.16-4.42c.78-1.31,1.85-2.33,3.22-3.07,1.37-.74,2.91-1.1,4.62-1.1,1.34,0,2.56.22,3.66.66,1.1.44,2.03,1.08,2.79,1.93l-1.49,1.49c-1.34-1.3-2.97-1.94-4.87-1.94-1.28,0-2.43.28-3.44.83s-1.81,1.32-2.39,2.3c-.58.98-.86,2.09-.86,3.32s.29,2.32.86,3.3,1.37,1.76,2.39,2.32c1.02.56,2.16.84,3.42.84,1.5,0,2.82-.36,3.94-1.08v-5.47Z"/>
      <path d="M533.48,88.46h2.4v16.8h-2.4v-16.8Z"/>
      <path d="M543.88,104.33c-1.35-.74-2.41-1.77-3.18-3.07-.77-1.3-1.15-2.77-1.15-4.4s.38-3.1,1.15-4.4c.77-1.3,1.83-2.33,3.19-3.07s2.88-1.12,4.56-1.12c1.31,0,2.51.22,3.6.66,1.09.44,2.02,1.09,2.78,1.96l-1.56,1.51c-1.26-1.33-2.84-1.99-4.73-1.99-1.25,0-2.38.28-3.38.84-1.01.56-1.8,1.33-2.36,2.32-.57.98-.85,2.08-.85,3.3s.28,2.32.85,3.3c.57.98,1.36,1.76,2.36,2.32,1.01.56,2.14.84,3.38.84,1.87,0,3.45-.67,4.73-2.02l1.56,1.51c-.77.86-1.7,1.52-2.79,1.97s-2.3.67-3.61.67c-1.68,0-3.2-.37-4.55-1.12Z"/>
      <path d="M568.56,101.06h-8.93l-1.85,4.2h-2.47l7.61-16.8h2.38l7.63,16.8h-2.52l-1.85-4.2ZM567.72,99.14l-3.62-8.23-3.62,8.23h7.25Z"/>
      <path d="M393.79,117.25h7.08c1.78,0,3.35.35,4.73,1.06,1.38.7,2.44,1.69,3.2,2.96.76,1.27,1.14,2.73,1.14,4.38s-.38,3.11-1.14,4.38c-.76,1.27-1.83,2.26-3.2,2.96s-2.95,1.06-4.73,1.06h-7.08v-16.8ZM400.72,131.96c1.36,0,2.56-.26,3.59-.79,1.03-.53,1.83-1.27,2.39-2.22s.84-2.05.84-3.3-.28-2.35-.84-3.3-1.36-1.69-2.39-2.22c-1.03-.53-2.23-.79-3.59-.79h-4.53v12.62h4.53Z"/>
      <path d="M416.61,133.13c-1.36-.74-2.43-1.77-3.2-3.08-.78-1.31-1.16-2.77-1.16-4.39s.39-3.08,1.16-4.39c.78-1.31,1.84-2.34,3.2-3.08,1.36-.74,2.89-1.12,4.58-1.12s3.2.37,4.56,1.12c1.36.74,2.42,1.77,3.19,3.07.77,1.3,1.15,2.77,1.15,4.4s-.38,3.1-1.15,4.4c-.77,1.3-1.83,2.33-3.19,3.07-1.36.74-2.88,1.12-4.56,1.12s-3.22-.37-4.58-1.12ZM424.51,131.27c.98-.56,1.76-1.33,2.33-2.32.57-.98.85-2.08.85-3.3s-.29-2.32-.85-3.3c-.57-.98-1.34-1.76-2.33-2.32-.98-.56-2.09-.84-3.32-.84s-2.35.28-3.35.84c-1,.56-1.78,1.33-2.35,2.32-.57.98-.85,2.08-.85,3.3s.28,2.32.85,3.3c.57.98,1.35,1.76,2.35,2.32,1,.56,2.12.84,3.35.84s2.34-.28,3.32-.84Z"/>
      <path d="M452.41,131.96v2.09h-12.19v-16.8h11.85v2.09h-9.45v5.16h8.42v2.04h-8.42v5.42h9.79Z"/>
      <path d="M457.53,133.65c-1.17-.39-2.1-.9-2.77-1.52l.89-1.87c.64.58,1.46,1.04,2.46,1.4,1,.36,2.03.54,3.08.54,1.39,0,2.43-.24,3.12-.71.69-.47,1.03-1.1,1.03-1.88,0-.58-.19-1.04-.56-1.4s-.84-.64-1.39-.83c-.55-.19-1.33-.41-2.34-.65-1.26-.3-2.28-.61-3.06-.91-.78-.3-1.44-.77-1.99-1.4-.55-.63-.83-1.48-.83-2.56,0-.9.24-1.7.71-2.42.47-.72,1.19-1.3,2.15-1.73.96-.43,2.15-.65,3.58-.65.99,0,1.97.13,2.93.38s1.78.62,2.47,1.1l-.79,1.92c-.7-.45-1.46-.79-2.25-1.02-.8-.23-1.58-.35-2.35-.35-1.36,0-2.38.25-3.06.74-.68.5-1.02,1.14-1.02,1.92,0,.58.19,1.04.58,1.4.38.36.86.64,1.43.84s1.34.41,2.32.64c1.26.3,2.28.61,3.05.91.77.3,1.43.77,1.98,1.39.55.62.83,1.46.83,2.52,0,.88-.24,1.68-.72,2.41s-1.21,1.3-2.18,1.73-2.17.64-3.6.64c-1.26,0-2.48-.2-3.66-.59Z"/>
      <path d="M474.29,119.34h-5.76v-2.09h13.89v2.09h-5.76v14.71h-2.38v-14.71Z"/>
      <path d="M494.9,129.85h-8.93l-1.85,4.2h-2.47l7.61-16.8h2.38l7.63,16.8h-2.52l-1.85-4.2ZM494.06,127.93l-3.62-8.23-3.62,8.23h7.25Z"/>
      <path d="M501.76,117.25h7.08c1.78,0,3.35.35,4.73,1.06,1.38.7,2.44,1.69,3.2,2.96.76,1.27,1.14,2.73,1.14,4.38s-.38,3.11-1.14,4.38c-.76,1.27-1.83,2.26-3.2,2.96-1.38.7-2.95,1.06-4.73,1.06h-7.08v-16.8ZM508.7,131.96c1.36,0,2.56-.26,3.59-.79,1.03-.53,1.83-1.27,2.39-2.22s.84-2.05.84-3.3-.28-2.35-.84-3.3-1.36-1.69-2.39-2.22c-1.03-.53-2.23-.79-3.59-.79h-4.54v12.62h4.54Z"/>
      <path d="M524.58,133.13c-1.36-.74-2.43-1.77-3.2-3.08-.78-1.31-1.16-2.77-1.16-4.39s.39-3.08,1.16-4.39c.78-1.31,1.84-2.34,3.2-3.08,1.36-.74,2.89-1.12,4.58-1.12s3.2.37,4.56,1.12c1.36.74,2.42,1.77,3.19,3.07s1.15,2.77,1.15,4.4-.38,3.1-1.15,4.4-1.83,2.33-3.19,3.07-2.88,1.12-4.56,1.12-3.22-.37-4.58-1.12ZM532.49,131.27c.98-.56,1.76-1.33,2.33-2.32.57-.98.85-2.08.85-3.3s-.28-2.32-.85-3.3-1.34-1.76-2.33-2.32c-.98-.56-2.09-.84-3.32-.84s-2.35.28-3.35.84c-1,.56-1.78,1.33-2.35,2.32-.57.98-.85,2.08-.85,3.3s.28,2.32.85,3.3c.57.98,1.35,1.76,2.35,2.32s2.12.84,3.35.84,2.34-.28,3.32-.84Z"/>
    </g>
  </g>
  <g>
    <path d="M188.14,36.58v17.33c-1.49-.19-2.79-.19-4.1-.19-19.19,0-31.11,11.74-31.11,33.35v49.19h-17.89V37.51h17.14v16.58c6.33-11.55,18.63-17.51,35.96-17.51Z"/>
    <path d="M102.67,37.93v8.47c-8.25-6.71-18.66-10.72-29.97-10.72-26.78,0-48.49,22.43-48.49,50.11s21.71,50.11,48.49,50.11c11.31,0,21.72-4,29.97-10.72v10.72h17.7V37.93h-17.7ZM72.7,119.93c-18.24,0-33.03-15.28-33.03-34.14s14.79-34.14,33.03-34.14c13.28,0,24.72,8.09,29.97,19.77,1.96,4.37,3.06,9.24,3.06,14.37s-1.1,10-3.06,14.37c-5.25,11.67-16.69,19.77-29.97,19.77Z"/>
    <path d="M195.7,37.51V15.9h17.89v21.61h32.08v14.72h-32.08v53.47c0,10.62,5.59,16.58,15.46,16.58,5.22,0,10.25-1.68,13.97-4.66l5.59,12.85c-5.4,4.66-13.6,6.89-21.61,6.89-19.94,0-31.3-10.99-31.3-30.93v-54.22"/>
    <path d="M353.13,86.55c0-9.94-2.18-18.75-6.54-26.46-4.36-7.7-10.41-13.69-18.15-17.98-7.74-4.29-16.56-6.43-26.44-6.43s-18.77,2.14-26.64,6.43c-7.87,4.29-14.05,10.28-18.54,17.98-4.49,7.7-6.73,16.33-6.73,25.9s2.31,18.38,6.93,26.08c4.62,7.7,11.15,13.69,19.61,17.98,8.46,4.29,18.15,6.43,29.08,6.43,8.59,0,16.36-1.37,23.32-4.1,6.96-2.73,12.78-6.71,17.47-11.92l-10.34-11.55c-7.55,7.95-17.5,11.92-29.86,11.92-10.15,0-18.64-2.64-25.47-7.92-6.83-5.28-10.83-12.26-12-20.96h83.91c.26-2.24.39-4.03.39-5.4ZM279.46,58.6c6.05-5.22,13.56-7.83,22.54-7.83s16.49,2.64,22.54,7.92c5.48,4.78,8.9,10.82,10.27,18.09h-65.62c1.37-7.39,4.79-13.46,10.27-18.19Z"/>
  </g>
</svg>